<svg width="174" height="37" viewBox="0 0 174 37" fill="none" xmlns="http://www.w3.org/2000/svg">
<path id="Vector 75" d="M2.13873 20.0368C0.842541 20.5124 0.177375 21.9488 0.653041 23.245C1.12871 24.5412 2.56508 25.2063 3.86127 24.7307L2.13873 20.0368ZM25.4016 15.0004L25.3719 12.5006L25.4016 15.0004ZM74.1482 17.0979L74.2037 14.5986L74.1482 17.0979ZM80.6086 25.9915L82.0493 23.9483V23.9483L80.6086 25.9915ZM34.8825 23.8939L34.7438 26.3901L34.8825 23.8939ZM173.618 16.3286C174.352 15.1588 173.998 13.6159 172.828 12.8823L153.767 0.927679C152.597 0.194082 151.054 0.547615 150.321 1.71732C149.587 2.88702 149.941 4.42995 151.11 5.16354L168.054 15.7899L157.427 32.7333C156.694 33.903 157.047 35.446 158.217 36.1796C159.387 36.9132 160.93 36.5596 161.663 35.3899L173.618 16.3286ZM3.86127 24.7307C5.55855 24.1078 7.38169 23.3266 9.21625 22.5327C11.0727 21.7293 12.9527 20.9076 14.8519 20.1569C18.6963 18.6373 22.3165 17.5373 25.4314 17.5002L25.3719 12.5006C21.2887 12.5492 16.9499 13.9512 13.0139 15.507C11.023 16.294 9.05747 17.1533 7.23043 17.944C5.38154 18.7441 3.68331 19.4699 2.13873 20.0368L3.86127 24.7307ZM74.0927 19.5973C75.0014 19.6175 75.2064 19.8563 75.2583 19.912C75.4132 20.0782 75.6063 20.4331 75.8294 21.3159C75.9934 21.9648 76.261 23.3854 76.6152 24.4255C77.0229 25.623 77.7284 27.0196 79.1679 28.0346L82.0493 23.9483C81.808 23.7782 81.5773 23.4862 81.3483 22.8138C81.0657 21.9839 80.996 21.353 80.677 20.0906C80.417 19.0622 79.9812 17.646 78.9162 16.5032C77.7482 15.2499 76.1423 14.6416 74.2037 14.5986L74.0927 19.5973ZM34.7438 26.3901C42.2359 26.8063 48.9165 24.8966 55.1858 23.0708C61.5541 21.2162 67.4954 19.4507 74.0927 19.5973L74.2037 14.5986C66.7078 14.432 60.0248 16.4539 53.7878 18.2702C47.4519 20.1154 41.5462 21.7603 35.0211 21.3978L34.7438 26.3901ZM25.4314 17.5002C26.1639 17.4915 26.5447 17.7133 26.8904 18.068C27.3515 18.5412 27.7513 19.2665 28.2817 20.3892C28.7371 21.353 29.3587 22.7854 30.2225 23.9073C31.1893 25.1631 32.6278 26.2725 34.7438 26.3901L35.0211 21.3978C34.7412 21.3822 34.5289 21.3047 34.1843 20.8571C33.7367 20.2757 33.386 19.4882 32.8025 18.2532C32.294 17.1771 31.5883 15.7246 30.4712 14.5783C29.2386 13.3136 27.5687 12.4744 25.3719 12.5006L25.4314 17.5002ZM79.1679 28.0346C84.7916 32.0001 92.2731 33.4093 100.317 33.418C108.402 33.4268 117.37 32.0196 126.245 30.0448C135.132 28.0671 144.029 25.4956 151.972 23.1329C159.97 20.7542 166.91 18.6168 172.058 17.4371L170.942 12.5634C165.59 13.7895 158.426 15.9971 150.547 18.3404C142.614 20.6999 133.862 23.2275 125.159 25.1642C116.443 27.1038 107.88 28.4263 100.323 28.418C92.7253 28.4097 86.4554 27.0552 82.0493 23.9483L79.1679 28.0346Z" fill="#818CF8"/>
</svg>
