<svg width="100" height="100" viewBox="0 0 100 100" fill="none" xmlns="http://www.w3.org/2000/svg">
<g id="bxs:quote-left">
<path id="Vector" d="M15.3787 26.217C21.2245 19.8795 30.0703 16.667 41.6662 16.667H45.8328V28.4128L42.4828 29.0837C36.7745 30.2253 32.8037 32.4712 30.6787 35.767C29.5699 37.5425 28.941 39.5755 28.8537 41.667H41.6662C42.7712 41.667 43.831 42.106 44.6124 42.8874C45.3938 43.6688 45.8328 44.7286 45.8328 45.8337V75.0003C45.8328 79.5962 42.0953 83.3337 37.4995 83.3337H12.4995C11.3944 83.3337 10.3346 82.8947 9.55323 82.1133C8.77183 81.3319 8.33284 80.2721 8.33284 79.167V58.3337L8.34534 46.1712C8.30784 45.7087 7.51617 34.7503 15.3787 26.217ZM83.3328 83.3337H58.3328C57.2278 83.3337 56.168 82.8947 55.3866 82.1133C54.6052 81.3319 54.1662 80.2721 54.1662 79.167V58.3337L54.1787 46.1712C54.1412 45.7087 53.3495 34.7503 61.212 26.217C67.0578 19.8795 75.9037 16.667 87.4995 16.667H91.6662V28.4128L88.3162 29.0837C82.6078 30.2253 78.637 32.4712 76.512 35.767C75.4032 37.5425 74.7744 39.5755 74.687 41.667H87.4995C88.6046 41.667 89.6644 42.106 90.4458 42.8874C91.2272 43.6688 91.6662 44.7286 91.6662 45.8337V75.0003C91.6662 79.5962 87.9287 83.3337 83.3328 83.3337Z" fill="white"/>
</g>
</svg>
