
<svg width="20" height="20" viewBox="0 0 20 20" fill="none" xmlns="http://www.w3.org/2000/svg">
<path d="M15.0089 7.49089L12.5089 4.99089M2.91719 17.0826C3.60885 17.7742 4.72552 17.7742 5.41719 17.0826L16.2505 6.24922C16.9422 5.55755 16.9422 4.44089 16.2505 3.74922C15.5589 3.05755 14.4422 3.05755 13.7505 3.74922L2.91719 14.5826C2.22552 15.2742 2.22552 16.3909 2.91719 17.0826Z" stroke="white" stroke-width="1.5" stroke-linecap="round" stroke-linejoin="round"/>
<path d="M7.08333 2.03268L8.33333 1.66602L7.96667 2.91602L8.33333 4.16602L7.08333 3.79935L5.83333 4.16602L6.2 2.91602L5.83333 1.66602L7.08333 2.03268ZM3.75 7.03268L5 6.66602L4.63333 7.91602L5 9.16602L3.75 8.79935L2.5 9.16602L2.86667 7.91602L2.5 6.66602L3.75 7.03268ZM16.25 11.1993L17.5 10.8327L17.1333 12.0827L17.5 13.3327L16.25 12.966L15 13.3327L15.3667 12.0827L15 10.8327L16.25 11.1993Z" stroke="white" stroke-linecap="round" stroke-linejoin="round"/>
</svg>
