<svg width="24" height="25" viewBox="0 0 24 25" fill="none" xmlns="http://www.w3.org/2000/svg">
<g id="Icon tab bar">
<path id="Vector" fill-rule="evenodd" clip-rule="evenodd" d="M4.19189 4.68047C8.47335 0.404524 15.4342 0.449653 19.7417 4.75832C24.0513 9.06811 24.0964 16.0326 19.8139 20.3142C15.5324 24.5958 8.56811 24.5518 4.25845 20.242C3.04621 19.0347 2.13029 17.5629 1.58259 15.942C1.03489 14.3212 0.870317 12.5955 1.10179 10.9003C1.13216 10.6779 1.24966 10.4766 1.42844 10.3407C1.60722 10.2049 1.83264 10.1456 2.0551 10.176C2.27757 10.2064 2.47886 10.3239 2.61469 10.5027C2.75052 10.6815 2.80977 10.9069 2.7794 11.1294C2.58291 12.5659 2.72221 14.0285 3.18634 15.4021C3.65048 16.7758 4.4268 18.0231 5.45432 19.0461C9.11528 22.706 15.0078 22.7274 18.618 19.1183C22.227 15.508 22.2056 9.6153 18.5458 5.95423C14.8871 2.29655 8.99795 2.27285 5.38776 5.87751L6.23164 5.88089C6.34276 5.88141 6.45269 5.90381 6.55515 5.94682C6.65761 5.98982 6.75059 6.05258 6.8288 6.13152C6.907 6.21046 6.96889 6.30403 7.01094 6.40689C7.05298 6.50975 7.07435 6.61989 7.07383 6.73101C7.07331 6.84213 7.05091 6.95206 7.00791 7.05452C6.96491 7.15698 6.90215 7.24997 6.82321 7.32818C6.74427 7.40639 6.65071 7.46828 6.54785 7.51032C6.44499 7.55237 6.33486 7.57374 6.22375 7.57322L3.35139 7.55968C3.12835 7.5585 2.91479 7.46929 2.75718 7.31146C2.59957 7.15363 2.51065 6.93995 2.50976 6.7169L2.4951 3.84672C2.4945 3.7356 2.5158 3.62545 2.55778 3.52256C2.59975 3.41967 2.66158 3.32606 2.73973 3.24707C2.81789 3.16808 2.91083 3.10525 3.01326 3.06218C3.11569 3.01911 3.22561 2.99663 3.33672 2.99604C3.44784 2.99545 3.55798 3.01675 3.66087 3.05872C3.76375 3.1007 3.85736 3.16253 3.93635 3.24069C4.01534 3.31884 4.07817 3.41179 4.12124 3.51422C4.16431 3.61666 4.18678 3.72657 4.18737 3.83769L4.19189 4.6816V4.68047ZM11.9989 7.13999C12.2233 7.13999 12.4385 7.22914 12.5972 7.38782C12.7559 7.54651 12.8451 7.76173 12.8451 7.98615V12.1493L15.4184 14.7216C15.4993 14.7996 15.5638 14.893 15.6082 14.9962C15.6526 15.0994 15.676 15.2104 15.677 15.3228C15.678 15.4351 15.6567 15.5466 15.6142 15.6506C15.5717 15.7546 15.5089 15.8491 15.4295 15.9286C15.3501 16.0081 15.2557 16.0709 15.1517 16.1135C15.0477 16.1561 14.9363 16.1776 14.824 16.1767C14.7116 16.1757 14.6006 16.1524 14.4973 16.1081C14.3941 16.0638 14.3007 15.9994 14.2226 15.9187L11.1539 12.8499V7.98728C11.1539 7.76286 11.2431 7.54764 11.4017 7.38895C11.5604 7.23026 11.7756 7.14111 12 7.14111L11.9989 7.13999Z" fill="white"/>
</g>
</svg>
