<svg width="24" height="24" viewBox="0 0 24 24" fill="none" xmlns="http://www.w3.org/2000/svg">
<g id="Icon tab bar">
<path id="Vector" fill-rule="evenodd" clip-rule="evenodd" d="M11.2378 2.79885C10.6238 2.87985 9.86583 3.05385 8.78783 3.30285L7.55883 3.58685C6.64883 3.79685 6.02083 3.94285 5.54183 4.10685C5.07883 4.26585 4.81683 4.42185 4.61983 4.61985C4.42183 4.81685 4.26583 5.07885 4.10683 5.54185C3.94283 6.02085 3.79683 6.64785 3.58683 7.55885L3.30283 8.78685C3.05383 9.86585 2.87983 10.6239 2.79883 11.2379C2.71883 11.8359 2.73783 12.2409 2.84383 12.6089C2.94883 12.9769 3.14783 13.3299 3.53183 13.7949C3.92683 14.2729 4.47583 14.8239 5.25883 15.6069L7.08883 17.4369C8.44783 18.7959 9.41483 19.7609 10.2468 20.3949C11.0608 21.0169 11.6568 21.2499 12.2618 21.2499C12.8678 21.2499 13.4628 21.0169 14.2778 20.3949C15.1088 19.7609 16.0768 18.7949 17.4358 17.4359C18.7958 16.0759 19.7608 15.1089 20.3958 14.2779C21.0158 13.4629 21.2498 12.8679 21.2498 12.2619C21.2498 11.6569 21.0168 11.0619 20.3948 10.2469C19.7608 9.41485 18.7948 8.44685 17.4358 7.08785L15.6058 5.25785C14.8238 4.47585 14.2728 3.92685 13.7958 3.53185C13.3298 3.14785 12.9768 2.94885 12.6088 2.84385C12.2408 2.73785 11.8358 2.71985 11.2388 2.79885H11.2378ZM11.0418 1.31185C11.7588 1.21685 12.3878 1.21985 13.0218 1.40185C13.6568 1.58385 14.1918 1.91485 14.7498 2.37485C15.2898 2.82085 15.8898 3.42085 16.6408 4.17185L18.5368 6.06785C19.8468 7.37785 20.8848 8.41585 21.5868 9.33785C22.3108 10.2849 22.7498 11.1969 22.7498 12.2619C22.7498 13.3279 22.3108 14.2399 21.5878 15.1869C20.8848 16.1089 19.8478 17.1469 18.5368 18.4569L18.4568 18.5369C17.1468 19.8469 16.1088 20.8849 15.1868 21.5869C14.2398 22.3109 13.3268 22.7499 12.2618 22.7499C11.1968 22.7499 10.2848 22.3109 9.33683 21.5879C8.41583 20.8849 7.37783 19.8479 6.06683 18.5369L4.17283 16.6399C3.42283 15.8899 2.82183 15.2889 2.37583 14.7499C1.91583 14.1909 1.58483 13.6559 1.40283 13.0219C1.22083 12.3869 1.21783 11.7579 1.31283 11.0409C1.40383 10.3469 1.59583 9.51885 1.83383 8.48485L2.13383 7.18185C2.33383 6.31885 2.49583 5.61485 2.68883 5.05385C2.89083 4.46685 3.14383 3.97385 3.55983 3.55785C3.97583 3.14185 4.46983 2.88785 5.05583 2.68785C5.61683 2.49385 6.32083 2.33185 7.18383 2.13285L8.48683 1.83285C9.52083 1.59285 10.3488 1.40285 11.0428 1.31085L11.0418 1.31185ZM9.48983 7.99485C9.25538 7.7604 8.93739 7.62869 8.60583 7.62869C8.27426 7.62869 7.95628 7.7604 7.72183 7.99485C7.48738 8.2293 7.35566 8.54729 7.35566 8.87885C7.35566 9.21042 7.48738 9.5284 7.72183 9.76285C7.83792 9.87894 7.97573 9.97103 8.12741 10.0339C8.27909 10.0967 8.44165 10.129 8.60583 10.129C8.77 10.129 8.93257 10.0967 9.08425 10.0339C9.23592 9.97103 9.37374 9.87894 9.48983 9.76285C9.60592 9.64676 9.698 9.50895 9.76083 9.35727C9.82366 9.20559 9.85599 9.04303 9.85599 8.87885C9.85599 8.71468 9.82366 8.55211 9.76083 8.40043C9.698 8.24876 9.60592 8.11094 9.48983 7.99485ZM6.66083 6.93485C7.17654 6.41901 7.87605 6.12915 8.60547 6.12906C9.3349 6.12897 10.0345 6.41864 10.5503 6.93435C11.0662 7.45007 11.356 8.14958 11.3561 8.879C11.3562 9.60842 11.0665 10.308 10.5508 10.8239C10.035 11.3397 9.33534 11.6295 8.60583 11.6295C7.87631 11.6295 7.17667 11.3397 6.66083 10.8239C6.14498 10.308 5.85518 9.60837 5.85518 8.87885C5.85518 8.14934 6.14498 7.4507 6.66083 6.93485ZM12.9908 12.1069C12.7596 12.1157 12.5412 12.2152 12.3828 12.3839C11.9948 12.7719 12.0968 13.1589 12.2058 13.2679C12.3158 13.3769 12.7028 13.4779 13.0898 13.0909C13.8738 12.3069 15.2278 12.0469 16.0948 12.9139C16.7678 13.5869 16.7628 14.5529 16.3598 15.3179C16.459 15.462 16.5046 15.6362 16.4888 15.8105C16.4731 15.9847 16.3969 16.1479 16.2735 16.2719C16.1501 16.3959 15.9872 16.4729 15.8131 16.4895C15.6389 16.5061 15.4644 16.4613 15.3198 16.3629C14.871 16.6089 14.3505 16.6909 13.8478 16.5949C13.7513 16.575 13.6596 16.5364 13.5781 16.4811C13.4965 16.4259 13.4266 16.3551 13.3723 16.2728C13.3181 16.1905 13.2806 16.0984 13.262 16.0016C13.2434 15.9049 13.244 15.8054 13.2638 15.7089C13.2837 15.6123 13.3223 15.5207 13.3776 15.4391C13.4328 15.3575 13.5036 15.2876 13.5859 15.2334C13.6682 15.1791 13.7603 15.1416 13.8571 15.123C13.9538 15.1044 14.0533 15.105 14.1498 15.1249C14.3268 15.1619 14.6128 15.1049 14.8578 14.8589C15.2448 14.4709 15.1438 14.0839 15.0348 13.9749C14.9248 13.8659 14.5378 13.7649 14.1508 14.1519C13.3668 14.9359 12.0128 15.1959 11.1458 14.3289C10.4728 13.6559 10.4778 12.6899 10.8808 11.9249C10.7817 11.7807 10.7361 11.6065 10.7518 11.4322C10.7676 11.258 10.8438 11.0948 10.9672 10.9708C11.0906 10.8468 11.2534 10.7698 11.4276 10.7532C11.6017 10.7366 11.7762 10.7814 11.9208 10.8799C12.2608 10.6989 12.6338 10.6029 13.0058 10.6069C13.2047 10.6087 13.3948 10.6895 13.5341 10.8315C13.6734 10.9734 13.7507 11.1649 13.7488 11.3639C13.747 11.5628 13.6662 11.7528 13.5242 11.8921C13.3822 12.0315 13.1897 12.1087 12.9908 12.1069Z" fill="white"/>
</g>
</svg>
