<svg width="24" height="25" viewBox="0 0 24 25" fill="none" xmlns="http://www.w3.org/2000/svg">
<g id="Icon tab bar">
<path id="Vector" d="M18.0099 9.48994L15.0099 6.48994M3.49994 20.9999C4.32994 21.8299 5.66994 21.8299 6.49994 20.9999L19.4999 7.99994C20.3299 7.16994 20.3299 5.82994 19.4999 4.99994C18.6699 4.16994 17.3299 4.16994 16.4999 4.99994L3.49994 17.9999C2.66994 18.8299 2.66994 20.1699 3.49994 20.9999Z" stroke="white" stroke-width="1.5" stroke-linecap="round" stroke-linejoin="round"/>
<path id="Vector_2" d="M8.5 2.94L10 2.5L9.56 4L10 5.5L8.5 5.06L7 5.5L7.44 4L7 2.5L8.5 2.94ZM4.5 8.94L6 8.5L5.56 10L6 11.5L4.5 11.06L3 11.5L3.44 10L3 8.5L4.5 8.94ZM19.5 13.94L21 13.5L20.56 15L21 16.5L19.5 16.06L18 16.5L18.44 15L18 13.5L19.5 13.94Z" stroke="white" stroke-linecap="round" stroke-linejoin="round"/>
</g>
</svg>
