<svg width="20" height="20" viewBox="0 0 20 20" fill="none" xmlns="http://www.w3.org/2000/svg">
<path d="M16.6666 14.1667V5.83333C16.6666 4.02667 13.6141 2.5 9.99992 2.5C6.38575 2.5 3.33325 4.02667 3.33325 5.83333V14.1667C3.33325 15.9733 6.38575 17.5 9.99992 17.5C13.6141 17.5 16.6666 15.9733 16.6666 14.1667ZM9.99992 4.16667C13.0758 4.16667 14.9424 5.4225 14.9999 5.82833C14.9424 6.24417 13.0758 7.5 9.99992 7.5C6.92409 7.5 5.05742 6.24417 4.99992 5.83833C5.05742 5.4225 6.92409 4.16667 9.99992 4.16667ZM4.99992 8.00583C6.23242 8.71167 8.03075 9.16667 9.99992 9.16667C11.9691 9.16667 13.7674 8.71167 14.9999 8.00583V9.995C14.9424 10.4108 13.0758 11.6667 9.99992 11.6667C6.92409 11.6667 5.05742 10.4108 4.99992 10V8.00583ZM4.99992 14.1667V12.1725C6.23242 12.8783 8.03075 13.3333 9.99992 13.3333C11.9691 13.3333 13.7674 12.8783 14.9999 12.1725V14.1617C14.9424 14.5775 13.0758 15.8333 9.99992 15.8333C6.92409 15.8333 5.05742 14.5775 4.99992 14.1667Z" fill="#CDCECF"/>
</svg>
