<svg width="22" height="22" viewBox="0 0 22 22" fill="none" xmlns="http://www.w3.org/2000/svg">
<rect width="22" height="22" rx="11" fill="#5865F2"/>
<path d="M16.3368 5.95322C15.3553 5.48896 14.3027 5.14692 13.2022 4.95102C13.1821 4.94724 13.1621 4.95668 13.1518 4.97558C13.0164 5.22377 12.8665 5.54754 12.7615 5.80203C11.5778 5.61936 10.4002 5.61936 9.24081 5.80203C9.13578 5.54189 8.98039 5.22377 8.84442 4.97558C8.83409 4.95732 8.81407 4.94787 8.79403 4.95102C7.69412 5.14629 6.64157 5.48834 5.65942 5.95322C5.65091 5.957 5.64363 5.9633 5.63879 5.97149C3.64231 9.04612 3.09539 12.0452 3.36369 15.0071C3.3649 15.0216 3.37279 15.0354 3.38372 15.0442C4.70094 16.0414 5.97689 16.6467 7.22915 17.048C7.24919 17.0543 7.27043 17.0467 7.28318 17.0297C7.57941 16.6127 7.84346 16.173 8.06986 15.7107C8.08322 15.6836 8.07047 15.6515 8.04316 15.6408C7.62433 15.477 7.22551 15.2773 6.84188 15.0505C6.81153 15.0323 6.8091 14.9875 6.83702 14.9661C6.91775 14.9037 6.9985 14.8389 7.07559 14.7733C7.08953 14.7614 7.10897 14.7589 7.12537 14.7664C9.64567 15.9526 12.3742 15.9526 14.8648 14.7664C14.8812 14.7582 14.9006 14.7608 14.9152 14.7727C14.9923 14.8382 15.073 14.9037 15.1543 14.9661C15.1823 14.9875 15.1804 15.0323 15.1501 15.0505C14.7665 15.2817 14.3676 15.477 13.9482 15.6401C13.9209 15.6508 13.9087 15.6836 13.9221 15.7107C14.1534 16.1724 14.4174 16.6121 14.7082 17.0291C14.7203 17.0467 14.7422 17.0543 14.7622 17.048C16.0205 16.6467 17.2965 16.0414 18.6137 15.0442C18.6252 15.0354 18.6325 15.0222 18.6337 15.0077C18.9548 11.5834 18.0959 8.60896 16.3568 5.97211C16.3526 5.9633 16.3453 5.957 16.3368 5.95322ZM8.44623 13.2036C7.68744 13.2036 7.06223 12.4855 7.06223 11.6036C7.06223 10.7217 7.67532 10.0036 8.44623 10.0036C9.22319 10.0036 9.84236 10.728 9.83021 11.6036C9.83021 12.4855 9.21712 13.2036 8.44623 13.2036ZM13.5633 13.2036C12.8046 13.2036 12.1794 12.4855 12.1794 11.6036C12.1794 10.7217 12.7924 10.0036 13.5633 10.0036C14.3403 10.0036 14.9595 10.728 14.9474 11.6036C14.9474 12.4855 14.3403 13.2036 13.5633 13.2036Z" fill="white"/>
</svg>
