<svg width="22" height="22" viewBox="0 0 22 22" fill="none" xmlns="http://www.w3.org/2000/svg">
<rect width="22" height="22" rx="11" fill="white"/>
<path fill-rule="evenodd" clip-rule="evenodd" d="M17.7868 11.1627C17.7868 10.6557 17.7414 10.1682 17.6568 9.7002H10.9229V12.4659H14.7709C14.6051 13.3597 14.1014 14.1169 13.3441 14.6239V16.4179H15.6549C17.0068 15.1732 17.7868 13.3402 17.7868 11.1627Z" fill="#4285F4"/>
<path fill-rule="evenodd" clip-rule="evenodd" d="M10.9229 18.1499C12.8534 18.1499 14.4719 17.5096 15.6549 16.4176L13.3442 14.6236C12.7039 15.0526 11.8849 15.3061 10.9229 15.3061C9.0607 15.3061 7.48445 14.0484 6.9222 12.3584H4.53345V14.2109C5.70995 16.5476 8.12795 18.1499 10.9229 18.1499Z" fill="#34A853"/>
<path fill-rule="evenodd" clip-rule="evenodd" d="M6.9222 12.3586C6.7792 11.9296 6.69795 11.4713 6.69795 11.0001C6.69795 10.5288 6.7792 10.0706 6.9222 9.64156V7.78906H4.53345C4.0492 8.75431 3.77295 9.84631 3.77295 11.0001C3.77295 12.1538 4.0492 13.2458 4.53345 14.2111L6.9222 12.3586Z" fill="#FBBC05"/>
<path fill-rule="evenodd" clip-rule="evenodd" d="M10.9229 6.69385C11.9727 6.69385 12.9152 7.0546 13.6562 7.7631L15.7069 5.71235C14.4687 4.5586 12.8502 3.8501 10.9229 3.8501C8.12795 3.8501 5.70995 5.45235 4.53345 7.7891L6.9222 9.6416C7.48445 7.9516 9.0607 6.69385 10.9229 6.69385Z" fill="#EA4335"/>
</svg>
