<svg width="24" height="24" viewBox="0 0 24 24" fill="none" xmlns="http://www.w3.org/2000/svg">
<path fill-rule="evenodd" clip-rule="evenodd" d="M8.67871 4.00773C8.62324 3.99899 8.56685 3.99765 8.51102 4.00377C7.40055 4.12393 5.71041 4.7234 4.71218 5.26477C4.64624 5.30073 4.58723 5.34812 4.53788 5.40473C4.12327 5.87876 3.74695 6.65121 3.4525 7.38272C3.1488 8.13272 2.89792 8.92497 2.75663 9.49803C2.28921 11.3598 2.03436 13.5953 2.00003 15.7159C1.99894 15.8217 2.02436 15.9261 2.07398 16.0196C2.4701 16.7762 3.32441 17.4773 4.18005 17.9897C5.04492 18.5086 6.05504 18.9179 6.86842 18.9971C6.96587 19.0064 7.06416 18.993 7.15557 18.958C7.24697 18.9229 7.32902 18.8672 7.39527 18.7951C7.59861 18.5746 7.94456 18.0596 8.20601 17.6595C8.32484 17.4773 8.43708 17.303 8.52423 17.1644C9.39834 17.3228 10.4943 17.4153 11.8807 17.4153C13.2645 17.4153 14.3605 17.3228 15.2346 17.1644C15.3217 17.3044 15.4327 17.4773 15.5515 17.6582C15.8129 18.0596 16.1589 18.5746 16.3636 18.7951C16.4298 18.8672 16.5119 18.9229 16.6033 18.958C16.6947 18.993 16.7929 19.0064 16.8904 18.9971C17.7038 18.9179 18.7126 18.5086 19.5775 17.9897C20.4331 17.4773 21.2874 16.7762 21.6848 16.0196C21.734 15.926 21.759 15.8216 21.7575 15.7159C21.7245 13.5953 21.4683 11.3585 21.0035 9.49671C20.8167 8.77766 20.5834 8.0715 20.305 7.38272C20.0106 6.65121 19.6342 5.87744 19.2209 5.40473C19.1712 5.348 19.1117 5.3006 19.0453 5.26477C18.0484 4.7234 16.3583 4.12393 15.2465 4.00377C15.1911 3.99777 15.1352 3.9991 15.0801 4.00773C14.8313 4.05562 14.5978 4.16349 14.4001 4.32199C13.9572 4.67855 13.5991 5.12912 13.3517 5.64109C12.8623 5.6027 12.3716 5.58376 11.8807 5.58431C11.3499 5.58431 10.8587 5.60412 10.4058 5.63977C10.1583 5.12827 9.80018 4.67817 9.35741 4.32199C9.16005 4.16369 8.92711 4.05583 8.67871 4.00773ZM16.526 16.8316C16.7118 17.1178 16.9024 17.4009 17.0977 17.6807C17.6206 17.5618 18.2874 17.2845 18.9265 16.9016C19.6435 16.4725 20.2126 15.9773 20.4872 15.5588C20.4437 13.5702 20.1981 11.5051 19.7742 9.80437C19.6015 9.14198 19.3863 8.49142 19.1298 7.85675C18.8658 7.19918 18.5819 6.64197 18.3349 6.32242C17.4767 5.87744 16.1232 5.40737 15.2412 5.27929C15.2147 5.29539 15.1891 5.31303 15.1646 5.33211C15.0552 5.41819 14.9552 5.51555 14.8662 5.6226C14.8142 5.68459 14.7644 5.74845 14.717 5.81406C15.1197 5.88801 15.4789 5.97648 15.7971 6.07419C16.7003 6.35147 17.3512 6.7344 17.6695 7.15825C17.7703 7.29273 17.8136 7.46176 17.7898 7.62816C17.7661 7.79457 17.6772 7.94472 17.5427 8.04557C17.4761 8.09551 17.4003 8.13185 17.3197 8.1525C17.2391 8.17316 17.1552 8.17773 17.0728 8.16596C16.9064 8.14219 16.7562 8.05329 16.6554 7.91881C16.5775 7.81582 16.2381 7.53589 15.4247 7.28501C14.6391 7.04469 13.4837 6.85191 11.8807 6.85191C10.2777 6.85191 9.12106 7.04469 8.33673 7.28633C7.52335 7.53721 7.184 7.8145 7.1061 7.91881C7.05616 7.9854 6.99359 8.04149 6.92197 8.0839C6.85035 8.12631 6.77108 8.15419 6.68869 8.16596C6.52228 8.18973 6.35325 8.14643 6.21877 8.04557C6.15219 7.99563 6.09609 7.93307 6.05368 7.86145C6.01128 7.78983 5.98339 7.71056 5.97162 7.62816C5.94785 7.46176 5.99116 7.29273 6.09201 7.15825C6.41023 6.73308 7.0612 6.35279 7.96437 6.07551C8.28127 5.97647 8.64042 5.88933 9.04183 5.81538C8.99437 5.74905 8.94415 5.68473 8.8913 5.6226C8.80273 5.51562 8.70315 5.41826 8.59421 5.33211C8.5693 5.31299 8.54329 5.29535 8.5163 5.27929C7.63558 5.40737 6.28215 5.87744 5.42388 6.32242C5.17564 6.64329 4.89307 7.19918 4.62767 7.85675C4.34642 8.55657 4.1127 9.29205 3.98462 9.80437C3.55945 11.5051 3.31385 13.5702 3.2716 15.5588C3.54624 15.9787 4.11403 16.4725 4.83101 16.9029C5.47142 17.2859 6.13691 17.5632 6.66111 17.6807C6.85839 17.4022 7.04902 17.1191 7.23286 16.8316C6.19633 16.4632 5.64043 15.9575 5.27864 15.4162C5.23251 15.3468 5.2005 15.269 5.18443 15.1873C5.16836 15.1056 5.16854 15.0215 5.18497 14.9398C5.2014 14.8581 5.23376 14.7805 5.28019 14.7114C5.32662 14.6422 5.38621 14.5829 5.45557 14.5368C5.52493 14.4906 5.6027 14.4586 5.68443 14.4425C5.76616 14.4265 5.85026 14.4267 5.93192 14.4431C6.01358 14.4595 6.0912 14.4919 6.16036 14.5383C6.22951 14.5847 6.28885 14.6443 6.33497 14.7137C6.67828 15.2313 7.58145 16.1477 11.8807 16.1477C16.1813 16.1477 17.0832 15.2313 17.4265 14.7137C17.5196 14.5736 17.6646 14.4763 17.8295 14.4431C17.9945 14.4099 18.1658 14.4436 18.3059 14.5368C18.446 14.6299 18.5433 14.7749 18.5765 14.9398C18.6097 15.1047 18.576 15.2761 18.4828 15.4162C18.121 15.9575 17.5638 16.4646 16.526 16.8316ZM7.3649 10.8554C7.68708 10.5095 8.12414 10.3141 8.57968 10.3114C9.03523 10.3141 9.47229 10.5095 9.79447 10.8554C10.1153 11.2027 10.2962 11.6714 10.2962 12.16C10.2962 12.6486 10.1153 13.1173 9.79447 13.4646C9.47229 13.8105 9.03523 14.0059 8.57968 14.0086C8.3507 14.0062 8.12466 13.9566 7.91566 13.863C7.70667 13.7694 7.51918 13.6338 7.3649 13.4646C7.03956 13.1083 6.8604 12.6425 6.86314 12.16C6.86314 11.6714 7.04404 11.2027 7.3649 10.8554ZM15.1818 10.3114C14.7262 10.3141 14.2892 10.5095 13.967 10.8554C13.6461 11.2027 13.4652 11.6714 13.4652 12.16C13.4652 12.6486 13.6461 13.1173 13.967 13.4646C14.2892 13.8105 14.7262 14.0059 15.1818 14.0086C15.6373 14.0059 16.0744 13.8105 16.3966 13.4646C16.7174 13.1173 16.8983 12.6486 16.8983 12.16C16.8983 11.6714 16.7174 11.2027 16.3966 10.8554C16.2423 10.6862 16.0548 10.5506 15.8458 10.457C15.6368 10.3634 15.4108 10.3138 15.1818 10.3114Z" fill="white"/>
</svg>
