<svg width="27" height="26" viewBox="0 0 27 26" fill="none" xmlns="http://www.w3.org/2000/svg">
<path d="M10.3545 11.0644C10.9106 11.0644 11.4439 10.8435 11.8371 10.4503C12.2303 10.057 12.4513 9.52372 12.4513 8.96762C12.4513 8.41152 12.2303 7.8782 11.8371 7.48498C11.4439 7.09176 10.9106 6.87085 10.3545 6.87085C9.79838 6.87085 9.26506 7.09176 8.87184 7.48498C8.47862 7.8782 8.25771 8.41152 8.25771 8.96762C8.25771 9.52372 8.47862 10.057 8.87184 10.4503C9.26506 10.8435 9.79838 11.0644 10.3545 11.0644Z" stroke="white" stroke-width="1.57865" stroke-linecap="round" stroke-linejoin="round"/>
<path d="M14.5483 2.67725H10.3547C5.1128 2.67725 3.01603 4.77402 3.01603 10.016V16.3063C3.01603 21.5482 5.1128 23.645 10.3547 23.645H16.6451C21.887 23.645 23.9838 21.5482 23.9838 16.3063V11.0643" stroke="white" stroke-width="1.57865" stroke-linecap="round" stroke-linejoin="round"/>
<path d="M17.4312 5.82252H23.1973M20.3143 8.70558V2.93945" stroke="white" stroke-width="1.57865" stroke-linecap="round"/>
<path d="M3.71839 20.4478L8.88694 16.9777C9.71517 16.422 10.9103 16.4849 11.6547 17.1245L12.0006 17.4285C12.8184 18.1309 14.1394 18.1309 14.9571 17.4285L19.3184 13.6858C20.1361 12.9833 21.4571 12.9833 22.2748 13.6858L23.9837 15.1535" stroke="white" stroke-width="1.57865" stroke-linecap="round" stroke-linejoin="round"/>
</svg>
