<svg width="16" height="16" viewBox="0 0 16 16" fill="none" xmlns="http://www.w3.org/2000/svg">
<g id="Icon tab bar">
<path id="Vector" d="M4.23915 5.2047L5.30182 4.87937C5.38556 4.85376 5.47352 4.8449 5.56068 4.85328C5.64785 4.86167 5.73251 4.88715 5.80983 4.92825C5.88715 4.96936 5.95562 5.02529 6.01132 5.09285C6.06702 5.16042 6.10888 5.2383 6.13448 5.32204C6.16009 5.40577 6.16895 5.49374 6.16057 5.5809C6.15218 5.66807 6.12671 5.75273 6.0856 5.83005C6.0445 5.90737 5.98856 5.97583 5.921 6.03154C5.85343 6.08724 5.77556 6.12909 5.69182 6.1547L3.14182 6.9347C3.05803 6.96032 2.97002 6.96917 2.88282 6.96074C2.79562 6.95232 2.71093 6.9268 2.63359 6.88562C2.55626 6.84445 2.4878 6.78844 2.43213 6.72079C2.37646 6.65314 2.33467 6.57518 2.30915 6.49137L1.52915 3.94137C1.50354 3.85763 1.49468 3.76967 1.50307 3.6825C1.51145 3.59534 1.53693 3.51068 1.57803 3.43336C1.61914 3.35604 1.67507 3.28757 1.74264 3.23186C1.8102 3.17616 1.88808 3.13431 1.97182 3.1087C2.14094 3.05698 2.32367 3.07457 2.47983 3.15758C2.63598 3.2406 2.75277 3.38225 2.80448 3.55137L3.09782 4.51204C4.70315 2.03937 7.88782 0.976035 10.7151 2.1347C11.5607 2.48128 12.32 3.00893 12.9397 3.68054C13.5593 4.35215 14.0243 5.15139 14.3018 6.02204C14.3303 6.1059 14.3417 6.1946 14.3355 6.28295C14.3293 6.37129 14.3055 6.45752 14.2656 6.53658C14.2257 6.61564 14.1705 6.68597 14.1031 6.74344C14.0357 6.80091 13.9576 6.84438 13.8732 6.8713C13.7888 6.89823 13.6999 6.90808 13.6117 6.90027C13.5235 6.89246 13.4377 6.86715 13.3594 6.82582C13.2811 6.7845 13.2117 6.72797 13.1555 6.65956C13.0993 6.59115 13.0572 6.51221 13.0318 6.42737C12.7502 5.54295 12.2241 4.75623 11.5144 4.15803C10.8047 3.55984 9.94027 3.17458 9.02093 3.04673C8.1016 2.91889 7.16485 3.05367 6.31885 3.43551C5.47285 3.81735 4.7521 4.43069 4.23982 5.2047H4.23915ZM12.4571 10.668L11.2738 10.9634C11.1881 10.9869 11.0986 10.993 11.0105 10.9814C10.9224 10.9698 10.8376 10.9407 10.7609 10.8959C10.6842 10.851 10.6172 10.7913 10.564 10.7202C10.5107 10.6491 10.4722 10.568 10.4507 10.4818C10.4292 10.3956 10.4251 10.306 10.4387 10.2182C10.4524 10.1304 10.4834 10.0462 10.53 9.97057C10.5767 9.89494 10.6379 9.8294 10.7102 9.77779C10.7826 9.72618 10.8645 9.68954 10.9511 9.67004L13.3798 9.06404C13.5064 9.00383 13.6487 8.98517 13.7865 9.0107C13.9192 9.02816 14.0437 9.0852 14.1436 9.17438C14.2434 9.26357 14.3142 9.38076 14.3465 9.5107L14.9918 12.0974C15.03 12.2673 15.0003 12.4454 14.9089 12.5936C14.8175 12.7418 14.6717 12.8484 14.5028 12.8906C14.3338 12.9327 14.1551 12.9071 14.0048 12.8192C13.8545 12.7312 13.7445 12.588 13.6985 12.42L13.4785 11.5387C12.8366 12.4624 11.9575 13.1959 10.9337 13.6619C9.90991 14.1279 8.77941 14.3092 7.66126 14.1866C6.54312 14.064 5.47873 13.6422 4.58022 12.9655C3.68172 12.2887 2.98236 11.3822 2.55582 10.3414L2.38248 9.9187C2.3493 9.83768 2.33241 9.75091 2.33276 9.66335C2.33311 9.5758 2.3507 9.48917 2.38454 9.40841C2.41837 9.32766 2.46777 9.25436 2.52993 9.19269C2.59209 9.13103 2.66579 9.08222 2.74682 9.04904C2.91045 8.98202 3.09401 8.98276 3.25711 9.05109C3.33786 9.08492 3.41116 9.13433 3.47283 9.19649C3.53449 9.25865 3.5833 9.33234 3.61648 9.41337L3.78982 9.83537C4.12965 10.6646 4.68948 11.3853 5.40889 11.9196C6.1283 12.454 6.97998 12.7817 7.87202 12.8675C8.76406 12.9532 9.66258 12.7938 10.4706 12.4063C11.2787 12.0188 11.9656 11.418 12.4571 10.6687V10.668Z" fill="#060708"/>
</g>
</svg>
