<svg width="24" height="24" viewBox="0 0 24 24" fill="none" xmlns="http://www.w3.org/2000/svg">
<g clip-path="url(#clip0_554_8516)">
<path d="M7.68316 0.422993L7.16116 2.02949C6.99865 2.51779 6.72448 2.96145 6.36045 3.32522C5.99643 3.68898 5.55257 3.96283 5.06416 4.12499L3.45616 4.64699L3.42316 4.65599C3.29925 4.69961 3.19194 4.78061 3.11602 4.88781C3.04011 4.99501 2.99934 5.12313 2.99934 5.25449C2.99934 5.38585 3.04011 5.51397 3.11602 5.62117C3.19194 5.72838 3.29925 5.80938 3.42316 5.85299L5.03116 6.37499C5.51973 6.53717 5.96378 6.81099 6.32805 7.17474C6.69232 7.53849 6.96679 7.98215 7.12966 8.47049L7.65166 10.0755C7.69527 10.1994 7.77627 10.3067 7.88348 10.3826C7.99068 10.4585 8.1188 10.4993 8.25016 10.4993C8.38152 10.4993 8.50964 10.4585 8.61684 10.3826C8.72404 10.3067 8.80504 10.1994 8.84866 10.0755L9.37066 8.47049C9.53191 7.98026 9.8057 7.53458 10.1701 7.16914C10.5345 6.8037 10.9794 6.52865 11.4692 6.36599L13.0772 5.84399C13.2011 5.80038 13.3084 5.71938 13.3843 5.61217C13.4602 5.50497 13.501 5.37685 13.501 5.24549C13.501 5.11413 13.4602 4.98601 13.3843 4.87881C13.3084 4.77161 13.2011 4.69061 13.0772 4.64699L11.4692 4.12499C10.9867 3.95848 10.5492 3.6827 10.1909 3.3192C9.83264 2.95571 9.5632 2.51432 9.40366 2.02949L8.88016 0.424493C8.83686 0.300066 8.7559 0.192204 8.64851 0.115875C8.54113 0.0395454 8.41265 -0.00146484 8.28091 -0.00146484C8.14916 -0.00146484 8.02068 0.0395454 7.9133 0.115875C7.80592 0.192204 7.72496 0.300066 7.68166 0.424493L7.68316 0.422993ZM0.325658 12.3195L1.47466 11.9475C1.82348 11.8312 2.14039 11.6353 2.40025 11.3752C2.66011 11.115 2.85576 10.7979 2.97166 10.449L3.34666 9.30299C3.37771 9.21439 3.43553 9.13763 3.51212 9.08332C3.5887 9.02901 3.68027 8.99984 3.77416 8.99984C3.86804 8.99984 3.95961 9.02901 4.0362 9.08332C4.11278 9.13763 4.1706 9.21439 4.20166 9.30299L4.57366 10.449C4.68723 10.7958 4.87961 11.1116 5.13569 11.3716C5.39178 11.6316 5.70461 11.8287 6.04966 11.9475L7.19716 12.3195C7.28576 12.3505 7.36252 12.4084 7.41683 12.485C7.47114 12.5615 7.50031 12.6531 7.50031 12.747C7.50031 12.8409 7.47114 12.9324 7.41683 13.009C7.36252 13.0856 7.28576 13.1434 7.19716 13.1745L6.04966 13.548C5.6998 13.6643 5.38197 13.8608 5.12153 14.1217C4.86109 14.3827 4.66526 14.7009 4.54966 15.051L4.17766 16.197C4.1466 16.2856 4.08878 16.3624 4.0122 16.4167C3.93561 16.471 3.84404 16.5002 3.75016 16.5002C3.65627 16.5002 3.5647 16.471 3.48812 16.4167C3.41153 16.3624 3.35371 16.2856 3.32266 16.197L2.94916 15.051C2.83332 14.7018 2.63751 14.3845 2.37735 14.1243C2.11719 13.8641 1.79987 13.6683 1.45066 13.5525L0.303158 13.1805C0.214555 13.1494 0.137791 13.0916 0.0834816 13.015C0.029172 12.9384 0 12.8469 0 12.753C0 12.6591 0.029172 12.5675 0.0834816 12.491C0.137791 12.4144 0.214555 12.3565 0.303158 12.3255L0.325658 12.3195ZM4.50016 17.8515V18.75C4.50016 19.7446 4.89525 20.6984 5.59851 21.4016C6.30177 22.1049 7.25559 22.5 8.25016 22.5H18.7502C19.7447 22.5 20.6985 22.1049 21.4018 21.4016C22.1051 20.6984 22.5002 19.7446 22.5002 18.75V8.24999C22.5002 7.25543 22.1051 6.3016 21.4018 5.59834C20.6985 4.89508 19.7447 4.49999 18.7502 4.49999H14.8682C14.9552 4.73399 15.0002 4.98449 15.0002 5.24399C15.0002 5.50799 14.9537 5.76299 14.8637 5.99999H18.7487C19.3454 5.99999 19.9177 6.23705 20.3396 6.659C20.7616 7.08096 20.9987 7.65326 20.9987 8.24999V18.75C20.9987 19.098 20.9192 19.425 20.7797 19.7205L15.3002 14.2425C14.8219 13.7643 14.1734 13.4957 13.4972 13.4957C12.8209 13.4957 12.1724 13.7643 11.6942 14.2425L6.21616 19.7205C6.0724 19.4172 5.99858 19.0856 6.00016 18.75V15.465C5.99227 15.4833 5.98477 15.5018 5.97766 15.5205L5.58766 16.7235C5.43766 17.0985 5.19766 17.4135 4.86766 17.6535C4.75248 17.7323 4.62929 17.7986 4.50016 17.8515ZM17.2472 11.256C17.4445 11.256 17.64 11.2171 17.8223 11.1416C18.0047 11.0661 18.1704 10.9553 18.3099 10.8158C18.4495 10.6762 18.5602 10.5105 18.6357 10.3282C18.7113 10.1458 18.7502 9.95037 18.7502 9.75299C18.7502 9.55562 18.7113 9.36017 18.6357 9.17782C18.5602 8.99547 18.4495 8.82978 18.3099 8.69021C18.1704 8.55065 18.0047 8.43993 17.8223 8.3644C17.64 8.28887 17.4445 8.24999 17.2472 8.24999C16.8485 8.24999 16.4662 8.40835 16.1844 8.69021C15.9025 8.97208 15.7442 9.35437 15.7442 9.75299C15.7442 10.1516 15.9025 10.5339 16.1844 10.8158C16.4662 11.0976 16.8485 11.256 17.2472 11.256ZM14.2427 15.303L19.7207 20.781C19.4177 20.9258 19.086 21.0006 18.7502 21H8.25016C7.90216 21 7.57516 20.9205 7.27966 20.781L12.7577 15.303C12.8552 15.2055 12.9709 15.1281 13.0983 15.0754C13.2257 15.0226 13.3623 14.9954 13.5002 14.9954C13.6381 14.9954 13.7746 15.0226 13.902 15.0754C14.0294 15.1281 14.1452 15.2055 14.2427 15.303Z" fill="white"/>
</g>
<defs>
<clipPath id="clip0_554_8516">
<rect width="24" height="24" fill="white"/>
</clipPath>
</defs>
</svg>
