<svg width="24" height="24" viewBox="0 0 24 24" fill="none" xmlns="http://www.w3.org/2000/svg">
<g id="Icon tab bar">
<g id="Group">
<path id="Vector" d="M12 12V9.5L19.5 2L22 4.5L14.5 12H12Z" stroke="white" stroke-width="1.5" stroke-linecap="round" stroke-linejoin="round"/>
<path id="Vector_2" d="M8 12H4.5C3.83696 12 3.20107 12.2634 2.73223 12.7322C2.26339 13.2011 2 13.837 2 14.5C2 15.163 2.26339 15.7989 2.73223 16.2678C3.20107 16.7366 3.83696 17 4.5 17H19.5C20.163 17 20.7989 17.2634 21.2678 17.7322C21.7366 18.2011 22 18.837 22 19.5C22 20.163 21.7366 20.7989 21.2678 21.2678C20.7989 21.7366 20.163 22 19.5 22H9" stroke="white" stroke-width="1.5" stroke-linecap="round" stroke-linejoin="round"/>
</g>
</g>
</svg>
