<svg width="24" height="24" viewBox="0 0 24 24" fill="none" xmlns="http://www.w3.org/2000/svg">
<path d="M18.634 3.60081C19.1114 3.60081 19.5692 3.79045 19.9068 4.12802C20.2443 4.46558 20.434 4.92342 20.434 5.40081V7.07601C20.4339 7.62871 20.2811 8.17065 19.9924 8.64201C19.7038 9.11337 19.2906 9.49584 18.7984 9.74721L13.7728 12.3152C14.6569 12.7161 15.377 13.4078 15.8132 14.275C16.2495 15.1422 16.3756 16.1326 16.1705 17.0815C15.9654 18.0303 15.4415 18.8803 14.686 19.4899C13.9306 20.0995 12.9891 20.432 12.0184 20.432C11.0476 20.432 10.1061 20.0995 9.35068 19.4899C8.59521 18.8803 8.07133 18.0303 7.86625 17.0815C7.66116 16.1326 7.78724 15.1422 8.22349 14.275C8.65975 13.4078 9.37987 12.7161 10.264 12.3152L5.23716 9.74721C4.77869 9.51307 4.38818 9.16489 4.1032 8.73616C3.81822 8.30743 3.64836 7.81258 3.60996 7.29921L3.60156 7.07601V5.39961C3.60156 4.92222 3.7912 4.46438 4.12877 4.12682C4.46634 3.78925 4.92417 3.59961 5.40156 3.59961L18.634 3.60081ZM12.0184 13.1372C11.6181 13.1372 11.2217 13.216 10.8519 13.3692C10.4821 13.5224 10.1461 13.7469 9.8631 14.0299C9.58007 14.313 9.35555 14.649 9.20238 15.0188C9.0492 15.3886 8.97036 15.7849 8.97036 16.1852C8.97036 16.5855 9.0492 16.9818 9.20238 17.3516C9.35555 17.7214 9.58007 18.0574 9.8631 18.3405C10.1461 18.6235 10.4821 18.848 10.8519 19.0012C11.2217 19.1544 11.6181 19.2332 12.0184 19.2332C12.8267 19.2332 13.602 18.9121 14.1736 18.3405C14.7452 17.7689 15.0664 16.9936 15.0664 16.1852C15.0664 15.3768 14.7452 14.6016 14.1736 14.0299C13.602 13.4583 12.8267 13.1372 12.0184 13.1372ZM15.064 4.80081H8.96916V10.3064L11.7448 11.7248C11.8293 11.768 11.9228 11.7905 12.0178 11.7905C12.1127 11.7905 12.2062 11.768 12.2908 11.7248L15.064 10.3064V4.80081ZM7.76916 4.80081H5.40156C5.24243 4.80081 5.08982 4.86402 4.9773 4.97655C4.86478 5.08907 4.80156 5.24168 4.80156 5.40081V7.07601L4.80996 7.24401C4.8384 7.54562 4.9425 7.83517 5.11262 8.08584C5.28274 8.33651 5.51338 8.54019 5.78316 8.67801L7.76916 9.69321V4.80081ZM18.634 4.80081H16.264V9.69321L18.2524 8.67801C18.5476 8.52728 18.7956 8.29792 18.9688 8.01524C19.142 7.73256 19.2337 7.40753 19.234 7.07601V5.39961C19.234 5.24048 19.1707 5.08787 19.0582 4.97535C18.9457 4.86282 18.7931 4.80081 18.634 4.80081Z" fill="white"/>
</svg>
