<svg width="20" height="20" viewBox="0 0 20 20" fill="none" xmlns="http://www.w3.org/2000/svg">
<g id="basil:diamond-outline">
<path id="Vector" fill-rule="evenodd" clip-rule="evenodd" d="M5.44588 2.70801C5.20576 2.70809 4.96937 2.76746 4.7577 2.88085C4.54604 2.99424 4.36565 3.15815 4.23255 3.35801L1.24172 7.84301C1.05922 8.11801 1.03755 8.46967 1.18505 8.76467C2.82179 12.0381 5.09635 14.9512 7.87505 17.333L9.33338 18.5838C9.51916 18.7431 9.75578 18.8306 10.0005 18.8306C10.2452 18.8306 10.4818 18.7431 10.6675 18.5838L12.1259 17.3338C14.905 14.9519 17.1798 12.0384 18.8167 8.76467C18.9642 8.46967 18.9417 8.11801 18.7592 7.84301L15.7667 3.35801C15.6336 3.15842 15.4533 2.99475 15.2418 2.88151C15.0303 2.76827 14.7941 2.70897 14.5542 2.70884L5.44588 2.70801ZM5.27255 4.05051C5.2916 4.02202 5.31739 3.99868 5.34763 3.98254C5.37786 3.96641 5.41161 3.95798 5.44588 3.95801H7.39588L5.80005 7.78801C5.76349 7.87563 5.73558 7.96662 5.71672 8.05967C5.12983 8.01586 4.54365 7.96308 3.95838 7.90134L2.78755 7.77884L5.27255 4.05051ZM2.73338 9.02967C4.22872 11.7731 6.20256 14.227 8.56172 16.2755L5.95755 9.33051C5.24705 9.28169 4.53748 9.22002 3.82922 9.14551L2.73338 9.02967ZM7.32172 9.40801L10 16.553L12.6792 9.40801C10.894 9.48916 9.10607 9.48916 7.32088 9.40801H7.32172ZM14.0442 9.33051L11.44 16.2755C13.7992 14.227 15.773 11.7731 17.2684 9.02967L16.1725 9.14551C15.4642 9.21967 14.755 9.28134 14.0442 9.33051ZM17.2134 7.77884L16.0417 7.90217C15.4564 7.96391 14.8703 8.0167 14.2834 8.06051C14.2649 7.9672 14.2372 7.87593 14.2009 7.78801L12.6042 3.95801H14.5542C14.5885 3.95798 14.6222 3.96641 14.6525 3.98254C14.6827 3.99868 14.7085 4.02202 14.7275 4.05051L17.2134 7.77884ZM12.9942 8.14134C11 8.24467 9.00255 8.24467 7.00755 8.14134L8.75005 3.95801H11.25L12.9934 8.14134H12.9942Z" fill="#D2D2D2"/>
</g>
</svg>
